<?xml version="1.0" encoding="utf-8"?>
<!-- Generator: Adobe Illustrator 23.1.1, SVG Export Plug-In . SVG Version: 6.00 Build 0)  -->
<svg version="1.1" id="Layer_1" xmlns="http://www.w3.org/2000/svg" xmlns:xlink="http://www.w3.org/1999/xlink" x="0px" y="0px"
	 viewBox="0 0 958 359" style="enable-background:new 0 0 958 359;" xml:space="preserve">
<style type="text/css">
	.st0{fill:#697173;}
	.st1{fill:#5678BB;}
	.st2{fill:#5EC9E2;}
</style>
<polygon class="st0" points="350.9,140.03 350.9,144.79 323.7,144.79 323.7,217.48 318.12,217.48 318.12,144.79 290.75,144.79 
	290.75,140.03 "/>
<path class="st0" d="M370.44,162.14c3.07,0,5.9,0.53,8.51,1.59c2.61,1.06,4.87,2.6,6.79,4.62c1.92,2.03,3.41,4.52,4.49,7.47
	c1.08,2.96,1.61,6.35,1.61,10.18c0,0.8-0.12,1.35-0.35,1.64c-0.24,0.29-0.61,0.44-1.12,0.44h-39.3v1.04c0,4.09,0.48,7.68,1.42,10.78
	c0.95,3.1,2.3,5.7,4.05,7.8c1.75,2.1,3.87,3.68,6.35,4.73c2.48,1.06,5.25,1.59,8.32,1.59c2.74,0,5.11-0.3,7.11-0.9
	c2.01-0.6,3.69-1.28,5.06-2.02c1.37-0.75,2.45-1.42,3.26-2.03c0.8-0.6,1.39-0.9,1.75-0.9c0.47,0,0.84,0.18,1.09,0.55l1.42,1.75
	c-0.88,1.1-2.04,2.12-3.47,3.07c-1.44,0.95-3.05,1.76-4.82,2.43c-1.77,0.68-3.67,1.21-5.69,1.61c-2.02,0.4-4.06,0.6-6.1,0.6
	c-3.72,0-7.12-0.65-10.18-1.94c-3.07-1.3-5.7-3.18-7.89-5.67c-2.2-2.48-3.89-5.52-5.09-9.11c-1.2-3.59-1.8-7.71-1.8-12.34
	c0-3.9,0.55-7.51,1.67-10.81c1.11-3.3,2.72-6.15,4.82-8.54c2.1-2.39,4.67-4.26,7.72-5.61C363.11,162.82,366.57,162.14,370.44,162.14
	 M370.52,166.03c-2.81,0-5.32,0.44-7.54,1.31c-2.22,0.88-4.14,2.14-5.77,3.78c-1.62,1.64-2.93,3.61-3.93,5.91
	c-1,2.3-1.67,4.87-2,7.72h35.85c0-2.92-0.4-5.54-1.2-7.85c-0.8-2.32-1.93-4.28-3.39-5.88c-1.46-1.6-3.21-2.84-5.25-3.69
	C375.26,166.46,373,166.03,370.52,166.03"/>
<path class="st0" d="M441.7,170.3c-0.18,0.18-0.35,0.34-0.52,0.46c-0.16,0.13-0.39,0.19-0.68,0.19c-0.36,0-0.87-0.25-1.51-0.74
	c-0.64-0.49-1.49-1.03-2.55-1.61c-1.06-0.58-2.38-1.12-3.97-1.61c-1.59-0.49-3.51-0.74-5.77-0.74c-3.14,0-5.92,0.56-8.35,1.67
	c-2.43,1.11-4.47,2.71-6.13,4.79c-1.66,2.08-2.93,4.6-3.81,7.55c-0.87,2.96-1.31,6.28-1.31,9.96c0,3.83,0.45,7.22,1.34,10.18
	c0.89,2.96,2.16,5.45,3.8,7.47c1.64,2.03,3.63,3.57,5.97,4.62c2.34,1.06,4.93,1.59,7.77,1.59c2.63,0,4.83-0.31,6.59-0.93
	c1.77-0.62,3.23-1.29,4.38-2.02c1.15-0.73,2.06-1.41,2.74-2.03c0.67-0.62,1.21-0.93,1.61-0.93c0.48,0,0.84,0.18,1.1,0.55l1.42,1.75
	c-0.84,1.1-1.9,2.12-3.17,3.07c-1.28,0.95-2.72,1.77-4.32,2.46c-1.61,0.69-3.35,1.23-5.23,1.61c-1.88,0.38-3.84,0.57-5.89,0.57
	c-3.47,0-6.63-0.63-9.5-1.89c-2.86-1.26-5.33-3.08-7.39-5.47c-2.06-2.39-3.67-5.32-4.82-8.78c-1.15-3.47-1.72-7.41-1.72-11.82
	c0-4.16,0.54-7.96,1.64-11.39c1.1-3.43,2.69-6.39,4.79-8.87c2.1-2.48,4.67-4.41,7.72-5.77c3.05-1.37,6.54-2.05,10.48-2.05
	c3.54,0,6.68,0.57,9.44,1.7c2.75,1.13,5.15,2.66,7.2,4.6L441.7,170.3z"/>
<path class="st0" d="M455.66,217.48v-77.82h5.2v32.66c2.52-3.1,5.39-5.57,8.62-7.42c3.23-1.84,6.85-2.76,10.87-2.76
	c2.99,0,5.63,0.48,7.91,1.42c2.28,0.95,4.17,2.32,5.67,4.11c1.49,1.79,2.63,3.94,3.39,6.46c0.77,2.52,1.15,5.36,1.15,8.54v34.81
	h-5.2v-34.81c0-5.11-1.17-9.11-3.5-12.01c-2.34-2.9-5.91-4.35-10.73-4.35c-3.58,0-6.9,0.92-9.96,2.76c-3.06,1.84-5.8,4.37-8.21,7.58
	v40.83H455.66z"/>
<path class="st0" d="M555.46,192.8c0.38,0.97,0.76,1.94,1.12,2.93c0.36-1.02,0.75-2,1.15-2.93c0.4-0.93,0.86-1.87,1.37-2.82
	l26.55-48.22c0.47-0.84,0.97-1.35,1.48-1.53c0.51-0.18,1.24-0.27,2.19-0.27h7.83v77.52h-9.31v-56.73c0-0.77,0.02-1.59,0.06-2.46
	c0.04-0.88,0.09-1.77,0.17-2.68l-26.88,49.04c-0.91,1.64-2.19,2.46-3.83,2.46h-1.53c-1.64,0-2.92-0.82-3.83-2.46l-27.48-49.21
	c0.11,0.95,0.19,1.88,0.25,2.79c0.06,0.91,0.08,1.75,0.08,2.52v56.73h-9.3v-77.52h7.83c0.95,0,1.68,0.09,2.19,0.27
	c0.51,0.18,1,0.69,1.48,1.53l27.09,48.28C554.63,190.91,555.08,191.84,555.46,192.8"/>
<path class="st0" d="M627.74,146.45c0,0.95-0.19,1.83-0.57,2.65c-0.38,0.82-0.9,1.55-1.53,2.19c-0.64,0.64-1.38,1.14-2.22,1.5
	c-0.84,0.37-1.73,0.55-2.68,0.55c-0.95,0-1.83-0.18-2.65-0.55c-0.82-0.36-1.55-0.87-2.19-1.5c-0.64-0.64-1.14-1.37-1.51-2.19
	c-0.36-0.82-0.55-1.7-0.55-2.65c0-0.95,0.18-1.85,0.55-2.71c0.36-0.86,0.87-1.61,1.51-2.24c0.64-0.64,1.37-1.14,2.19-1.51
	c0.82-0.36,1.71-0.55,2.65-0.55c0.95,0,1.84,0.18,2.68,0.55c0.84,0.37,1.58,0.87,2.22,1.51c0.64,0.64,1.15,1.39,1.53,2.24
	C627.55,144.6,627.74,145.5,627.74,146.45 M625.55,217.48h-9.74v-55.45h9.74V217.48z"/>
<path class="st0" d="M642.73,217.48v-55.44h5.8c1.39,0,2.26,0.67,2.63,2.02l0.77,6.02c2.41-2.66,5.1-4.82,8.07-6.46
	c2.97-1.64,6.41-2.46,10.32-2.46c3.03,0,5.7,0.5,8.02,1.51c2.32,1,4.25,2.43,5.8,4.27c1.55,1.84,2.73,4.06,3.53,6.65
	c0.8,2.59,1.2,5.46,1.2,8.59v35.3h-9.74v-35.3c0-4.2-0.96-7.45-2.87-9.77c-1.92-2.32-4.85-3.48-8.79-3.48
	c-2.88,0-5.57,0.69-8.07,2.08c-2.5,1.39-4.81,3.27-6.92,5.64v40.83H642.73z"/>
<path class="st0" d="M725.55,161.16c3.32,0,6.39,0.56,9.2,1.67c2.81,1.11,5.23,2.72,7.28,4.82c2.04,2.1,3.64,4.69,4.79,7.77
	c1.15,3.08,1.72,6.6,1.72,10.54c0,1.53-0.17,2.55-0.49,3.07c-0.33,0.51-0.95,0.77-1.86,0.77h-36.89c0.07,3.5,0.55,6.55,1.43,9.14
	c0.88,2.59,2.08,4.75,3.61,6.49c1.53,1.73,3.36,3.03,5.47,3.89c2.12,0.86,4.49,1.28,7.11,1.28c2.44,0,4.55-0.28,6.32-0.85
	c1.77-0.57,3.29-1.18,4.57-1.83c1.28-0.66,2.34-1.27,3.2-1.83c0.86-0.57,1.6-0.85,2.22-0.85c0.8,0,1.43,0.31,1.86,0.93l2.74,3.56
	c-1.2,1.46-2.65,2.73-4.33,3.8c-1.68,1.08-3.47,1.96-5.39,2.65c-1.91,0.69-3.9,1.21-5.94,1.56c-2.04,0.35-4.07,0.52-6.08,0.52
	c-3.83,0-7.36-0.65-10.59-1.94c-3.23-1.3-6.02-3.19-8.37-5.69c-2.35-2.5-4.19-5.59-5.5-9.28c-1.31-3.69-1.97-7.92-1.97-12.7
	c0-3.87,0.59-7.48,1.78-10.84c1.19-3.36,2.89-6.27,5.12-8.73c2.22-2.46,4.94-4.4,8.15-5.8
	C717.92,161.86,721.53,161.16,725.55,161.16 M725.77,168.33c-4.71,0-8.41,1.36-11.11,4.08c-2.7,2.72-4.38,6.48-5.04,11.3h30.16
	c0-2.26-0.31-4.33-0.93-6.21c-0.62-1.88-1.53-3.5-2.74-4.87c-1.2-1.37-2.67-2.42-4.4-3.17C729.97,168.7,727.99,168.33,725.77,168.33
	"/>
<path class="st0" d="M760.96,217.48v-55.44h5.58c1.06,0,1.79,0.2,2.19,0.6s0.67,1.09,0.82,2.08l0.66,8.65
	c1.9-3.87,4.24-6.89,7.03-9.06c2.79-2.17,6.07-3.26,9.82-3.26c1.53,0,2.92,0.17,4.16,0.52c1.24,0.35,2.39,0.83,3.45,1.45l-1.26,7.28
	c-0.26,0.91-0.82,1.37-1.7,1.37c-0.51,0-1.3-0.17-2.35-0.52c-1.06-0.35-2.54-0.52-4.43-0.52c-3.39,0-6.23,0.99-8.51,2.96
	c-2.28,1.97-4.19,4.83-5.72,8.59v35.3H760.96z"/>
<path class="st0" d="M836.82,171.18c-0.44,0.8-1.11,1.21-2.03,1.21c-0.55,0-1.17-0.2-1.86-0.6c-0.7-0.4-1.54-0.85-2.55-1.34
	c-1.01-0.49-2.2-0.95-3.59-1.37c-1.38-0.42-3.03-0.63-4.93-0.63c-1.64,0-3.12,0.21-4.43,0.63c-1.31,0.42-2.44,0.99-3.37,1.72
	c-0.93,0.73-1.64,1.58-2.14,2.55c-0.49,0.97-0.74,2.02-0.74,3.15c0,1.42,0.41,2.61,1.23,3.56c0.82,0.95,1.91,1.77,3.26,2.46
	c1.35,0.69,2.88,1.3,4.6,1.83c1.72,0.53,3.47,1.09,5.28,1.7c1.81,0.6,3.57,1.27,5.28,2c1.72,0.73,3.25,1.64,4.6,2.74
	c1.35,1.09,2.44,2.43,3.26,4.02c0.82,1.59,1.23,3.49,1.23,5.72c0,2.55-0.45,4.92-1.37,7.09c-0.91,2.17-2.26,4.05-4.05,5.64
	c-1.79,1.59-3.98,2.84-6.57,3.75c-2.59,0.91-5.58,1.37-8.98,1.37c-3.87,0-7.37-0.63-10.51-1.89c-3.14-1.26-5.8-2.87-7.99-4.84
	l2.3-3.72c0.29-0.47,0.64-0.84,1.04-1.1s0.93-0.38,1.59-0.38c0.66,0,1.35,0.26,2.08,0.77c0.73,0.51,1.61,1.08,2.65,1.7
	c1.04,0.62,2.3,1.19,3.78,1.7c1.47,0.51,3.33,0.77,5.55,0.77c1.9,0,3.56-0.25,4.98-0.74c1.42-0.49,2.61-1.16,3.56-2
	c0.95-0.84,1.65-1.81,2.11-2.9c0.46-1.09,0.68-2.26,0.68-3.5c0-1.53-0.41-2.8-1.23-3.8c-0.82-1-1.91-1.86-3.26-2.57
	c-1.35-0.71-2.89-1.33-4.62-1.86c-1.73-0.53-3.5-1.09-5.31-1.67c-1.81-0.58-3.58-1.25-5.31-2c-1.73-0.75-3.28-1.69-4.62-2.82
	s-2.43-2.53-3.26-4.19c-0.82-1.66-1.23-3.68-1.23-6.05c0-2.12,0.44-4.15,1.31-6.1c0.88-1.95,2.15-3.67,3.83-5.14
	c1.68-1.48,3.74-2.66,6.19-3.53c2.44-0.88,5.24-1.31,8.38-1.31c3.65,0,6.92,0.58,9.82,1.72c2.9,1.15,5.41,2.73,7.53,4.73
	L836.82,171.18z"/>
<g>
	<path class="st1" d="M232.62,238.31L232.62,238.31c-3.95,0-7.14-3.19-7.14-7.13v-45.7c0-3.94,3.2-7.14,7.14-7.14h0.01
		c3.94,0,7.13,3.19,7.13,7.14v45.7C239.76,235.12,236.56,238.31,232.62,238.31"/>
	<path class="st2" d="M232.62,136.55L232.62,136.55c-3.95,0-7.14-3.19-7.14-7.13v-2.89c0-3.94,3.2-7.14,7.14-7.14
		c3.94,0,7.14,3.2,7.14,7.14v2.89C239.76,133.36,236.56,136.55,232.62,136.55"/>
	<rect x="231.63" y="140.07" class="st0" width="1.98" height="34.91"/>
	<path class="st1" d="M206.5,213.38L206.5,213.38c-3.95,0-7.14-3.19-7.14-7.13v-36.34c0-3.94,3.2-7.14,7.14-7.14h0.01
		c3.94,0,7.13,3.2,7.13,7.14v36.34C213.64,210.19,210.44,213.38,206.5,213.38"/>
	<path class="st2" d="M206.5,146.71L206.5,146.71c-3.95,0-7.14-3.19-7.14-7.13v-13.05c0-3.94,3.2-7.14,7.14-7.14
		c3.94,0,7.14,3.19,7.14,7.14v13.05C213.64,143.52,210.44,146.71,206.5,146.71"/>
	<rect x="205.51" y="216.73" class="st0" width="1.98" height="21.52"/>
	<rect x="205.51" y="150.15" class="st0" width="1.98" height="9.26"/>
	<path class="st1" d="M154.26,213.38L154.26,213.38c-3.95,0-7.14-3.19-7.14-7.13v-36.34c0-3.94,3.2-7.14,7.14-7.14h0.01
		c3.94,0,7.13,3.2,7.13,7.14v36.34C161.4,210.19,158.2,213.38,154.26,213.38"/>
	<path class="st2" d="M154.26,146.71L154.26,146.71c-3.95,0-7.14-3.19-7.14-7.13v-13.05c0-3.94,3.2-7.14,7.14-7.14
		c3.94,0,7.14,3.19,7.14,7.14v13.05C161.4,143.52,158.2,146.71,154.26,146.71"/>
	<rect x="153.25" y="216.73" class="st0" width="1.98" height="21.52"/>
	<rect x="153.27" y="150.15" class="st0" width="1.98" height="9.26"/>
	<path class="st1" d="M128.14,238.31L128.14,238.31c-3.95,0-7.14-3.19-7.14-7.13v-45.7c0-3.94,3.2-7.14,7.14-7.14h0.01
		c3.94,0,7.13,3.19,7.13,7.14v45.7C135.28,235.12,132.08,238.31,128.14,238.31"/>
	<path class="st2" d="M128.14,136.55L128.14,136.55c-3.95,0-7.14-3.19-7.14-7.13v-2.89c0-3.94,3.2-7.14,7.14-7.14
		c3.94,0,7.14,3.2,7.14,7.14v2.89C135.28,133.36,132.08,136.55,128.14,136.55"/>
	<rect x="127.15" y="140.07" class="st0" width="1.98" height="34.91"/>
	<path class="st2" d="M180.38,192.99L180.38,192.99c-3.95,0-7.14-3.19-7.14-7.13v-59.73c0-3.94,3.2-7.14,7.14-7.14h0.01
		c3.94,0,7.13,3.2,7.13,7.14v59.73C187.52,189.8,184.32,192.99,180.38,192.99"/>
	<path class="st1" d="M180.38,238.56L180.38,238.56c-3.95,0-7.14-3.19-7.14-7.13v-24.66c0-3.94,3.2-7.14,7.14-7.14h0.01
		c3.94,0,7.13,3.2,7.13,7.14v24.66C187.52,235.36,184.32,238.56,180.38,238.56"/>
</g>
</svg>
